    <!-- Generator: Adobe Illustrator 24.3.0, SVG Export Plug-In  -->
<svg version="1.1" xmlns="http://www.w3.org/2000/svg" xmlns:xlink="http://www.w3.org/1999/xlink" x="0px" y="0px" width="701.7px"
	 height="712.1px" viewBox="0 0 701.7 712.1" style="overflow:visible;enable-background:new 0 0 701.7 712.1;"
	 xml:space="preserve">
<style type="text/css">
	.st0{fill:#B6C5DD;}
	.st1{fill:#D5DFEF;}
	.st2{fill:#3F3D56;}
	.st3{fill:#4986CC;}
	.st4{fill:#FEB8B8;}
	.st5{fill:#333E4F;}
	.st6{fill:#2F2E41;}
	.st7{opacity:0.1;enable-background:new    ;}
	.st8{fill:#FFFFFF;}
	.st9{fill:#B6C5DD;stroke:#B6C5DD;stroke-miterlimit:10;}
</style>
<defs>
</defs>
<path class="st0" d="M701.7,169.2h-3.9V62c0-34.3-27.8-62-62-62c0,0,0,0,0,0H408.7c-34.3,0-62,27.8-62,62c0,0,0,0,0,0v588
	c0,34.3,27.8,62,62,62c0,0,0,0,0,0h227.1c34.3,0,62-27.8,62-62c0,0,0,0,0,0V245.5h3.9V169.2z"/>
<path class="st1" d="M638.3,16.1h-29.6c4.6,11.3-0.8,24.1-12.1,28.7c-2.6,1.1-5.5,1.6-8.3,1.6H458.2c-12.2,0-22-9.9-22-22
	c0-2.8,0.6-5.7,1.6-8.3h-27.7c-25.6,0-46.3,20.7-46.3,46.3v587.2c0,25.6,20.7,46.3,46.3,46.3c0,0,0,0,0,0h228.2
	c25.6,0,46.3-20.7,46.3-46.3c0,0,0,0,0,0V62.5C684.6,36.9,663.9,16.1,638.3,16.1L638.3,16.1z"/>
<path class="st2" d="M71.6,684.8l-1.1-0.4c-0.2-0.1-23.7-9.1-34.7-29.5c-11-20.4-5.6-44.9-5.6-45.2l0.3-1.1l1.1,0.4
	c0.2,0.1,23.7,9.1,34.7,29.5c11,20.4,5.6,44.9,5.6,45.2L71.6,684.8z M37.5,653.9c9.3,17.2,27.8,26.1,32.5,28.1
	c0.9-5,3.7-25.4-5.6-42.6c-9.3-17.2-27.8-26.1-32.5-28.1C31.1,616.3,28.3,636.7,37.5,653.9z"/>
<path class="st3" d="M44.2,647.7c19.8,11.9,27.4,35.5,27.4,35.5s-24.4,4.3-44.2-7.5S0,640.2,0,640.2S24.4,635.8,44.2,647.7z"/>
<path class="st3" d="M183.5,174.8H178l-23.6,85.6c0,0-0.5,56.9,5.1,84.7c0,0,9.3-12,15.7-12s12.5-60.6,12.5-60.6
	S213.2,185.9,183.5,174.8z"/>
<path class="st4" d="M305.7,338.7c0,0-14.8,41.7-0.9,44.4s21.3-32.4,17.6-37S305.7,338.7,305.7,338.7z"/>
<path class="st4" d="M158,330.1c0,0,4.2,44,17.9,40.7s5.6-38.4,0.3-41S158,330.1,158,330.1z"/>
<path class="st4" d="M193.7,587.7c0,0,6.5,31.5-4.6,39.8s3.7,25.9,3.7,25.9l35.2-37c0,0-14.8-23.1-13.9-37L193.7,587.7z"/>
<polygon class="st4" points="249.2,616.3 245.5,641.3 244.6,658.9 265,657.1 267.8,621 "/>
<path class="st5" d="M170.9,334.5c0,0-11.4,4.2-10.5,16.2s3.7,50,3.7,50s-8.3,81.5,0,109.2s24.1,83.3,24.1,83.3s24.1,4.6,29.6-13
	c0,0-0.9-60.2-11.1-73.1s-2.8-16.7-1.9-18.5s3.7-4.6,3.7-7.4s0.9-13,0.9-16.7s-0.9-2.8,0.9-8.3s3.7-7.4,3.7-8.3s15.7-50,15.7-50
	l20.4,113.8c0,0-4.6,112-2.8,112s22.2,7.4,29.6,0c0,0,18.5-96.3,14.8-101.8s-4.6-6.5-3.7-12s2.8-8.3,0.9-11.1s-4.6-12-1.9-14.8
	s3.7-15.7,3.7-15.7s15.7-90.7,5.6-103.7S170.9,334.5,170.9,334.5z"/>
<path class="st5" d="M202,628.4c0,0-11.1-13.9-14.8-7.4s-9.3,16.7-9.3,16.7s-41.7,36.1-18.5,37s37.9-15.7,37.9-15.7
	s3.7-18.5,14.8-18.5l1.9,4.6l20.4-13c0,0-2.9-24.6-11.2-23.9L202,628.4z"/>
<path class="st5" d="M240.9,656.1c0,0,24.1-9.3,26.8,0s2.8,13.9,2.8,13.9s20.4,33.3,0,35.2s-29.6-11.1-29.6-11.1s2.8-15.7,0-17.6
	S240.9,656.1,240.9,656.1z"/>
<circle class="st4" cx="257.6" cy="112.8" r="32.4"/>
<path class="st4" d="M233.5,120.2l-6.5,36.1l45.4,11.1c0,0-10.6-26.4,0.9-37.9C276.2,126.6,233.5,120.2,233.5,120.2z"/>
<path class="st3" d="M229.8,140.9c-2.2,0.4-4,2.1-4.6,4.3c-0.8,2.7-2.1,5.2-3.7,7.4c0,0-43.5,20.4-43.5,23.1s17.6,62,17.6,62
	s0.9,37-6.5,45.4s-14.8,38.9-13,41.7s-13,9.3-7.4,13.9s83.3,49.1,129.6,28.7c0,0,0.9-8.3,0-13.9s5.6-24.1,3.7-30.5s0-73.1,0-73.1
	l9.5-78.9c0.4-3.1-1.5-6-4.5-6.9c-10.7-3.2-35.4-16.5-38.8-13.7C263.8,154,236.3,151.5,229.8,140.9z"/>
<path class="st3" d="M302.9,163.7L302.9,163.7c2.8-1.1,5.9-0.2,7.6,2.1c5.7,7.8,17.8,25.5,19.2,36.7c1.9,14.8,7.4,54.6,6.5,60.2
	s-1.9,6.5,0,9.3s0.9,1.9,0,4.6s-12,79.6-12,79.6s-7.4-16.7-21.3-11.1c0,0,1.9-14.8,0-19.4s-3.7-7.4-1.9-11.1s0-39.8-0.9-43.5
	s0-23.1,0-23.1l-8.3-37.9L302.9,163.7z"/>
<path class="st6" d="M251.5,118.3l1.1-7.6c0.3-1.8,1.3-4.1,3-3.6c1.5,0.4,4.7,1.7,5.2,1.3c2-1.4,5.1,1.1,7.2-0.2
	c0.9-0.5,1.5-1.7,2.5-1.7c0.7,0,1.3,0.3,1.8,0.8c1.4,1.2,3,2.1,4.7,2.6c1.8,0.5,3.7,0,5-1.4c0.2-0.3,0.5-0.6,0.9-0.8
	c0.4-0.1,0.9-0.1,1.3,0.1l5.4,1.5c1.6-5.8,0.6-12.1-2.8-17.1c-2.2-3-4.8-5.6-7.9-7.7c-3.3-2.5-6.8-4.9-10.4-7.2
	c-3.9-2.5-8-4.8-12.6-5.5c-4.6-0.7-9.7,0.5-12.5,4.2c-1.3-1-2.4-2.3-2.9-3.9c-1.2,1.1-1.3,3-0.2,4.2c0.1,0.1,0.2,0.3,0.4,0.4
	l-4.6-2.9c-1.3,1.3,1.2,3.8,0.1,5.3c-0.3,0.4-0.8,0.6-1.2,0.8c-2.5,1-4.8,2.4-6.7,4.2c-2.6,2.6-4.1,6.2-5.3,9.7
	c-2.7,7.8-4.7,16.8-0.8,24.1c0.4,0.8,6.2,14.5,7,15c2.6,1.8,0.9-2.6,2.8,0c1.5,2,1.2-5.7,3.4-4c1.7,1.2,4.1,1.4,5.9,0.3
	c0.9-0.6,0.6-4.1,0.1-7.3c-0.3-2.1,1.1-4,3.1-4.3c0.5-0.1,1-0.1,1.4,0.1C248.8,118.1,251.5,118.7,251.5,118.3z"/>
<path class="st7" d="M296.1,192.1l8.2,92.5C304.3,284.5,287,207,296.1,192.1z"/>
<path class="st8" d="M575.2,156.2C575.2,156.2,575.2,156.2,575.2,156.2h-102c-16.3,0-29.5,13.2-29.5,29.5s13.2,29.5,29.5,29.5h102
	c16.3,0,29.5-13.2,29.5-29.5C604.7,169.4,591.5,156.2,575.2,156.2z"/>
<circle class="st0" cx="473.5" cy="185.6" r="22.7"/>
<path class="st0" d="M574.9,219.6h-102c-18.8,0-34-15.2-34-34s15.2-34,34-34l0,0h102c18.8,0,34,15.2,34,34S593.6,219.6,574.9,219.6z
	 M472.9,156.2c-16.3,0-29.5,13.2-29.5,29.5s13.2,29.5,29.5,29.5l0,0h102c16.3,0,29.5-13.2,29.5-29.5c0-16.3-13.2-29.5-29.5-29.5
	c0,0,0,0,0,0L472.9,156.2z"/>
<circle class="st9" cx="524.2" cy="444.7" r="107.7"/>
<circle class="st8" cx="524.2" cy="444.6" r="98.8"/>
<circle class="st9" cx="523.9" cy="445" r="13.2"/>
<rect x="521" y="350.8" class="st9" width="5.7" height="10.7"/>
<rect x="521" y="528.5" class="st9" width="5.7" height="10.7"/>
<rect x="429.7" y="442.1" class="st9" width="10.7" height="5.7"/>
<rect x="607.3" y="442.1" class="st9" width="10.7" height="5.7"/>
<polygon class="st9" points="520.1,450.7 524.9,439.6 586.1,473.4 "/>
<rect x="510.3" y="310.9" class="st9" width="27.8" height="32.1"/>
<ellipse class="st9" cx="524.2" cy="309" rx="25.5" ry="7.1"/>
</svg>
