<!-- Generator: Adobe Illustrator 24.3.0, SVG Export Plug-In  -->
<svg version="1.1" xmlns="http://www.w3.org/2000/svg" xmlns:xlink="http://www.w3.org/1999/xlink" x="0px" y="0px" width="677.9px"
	 height="714.2px" viewBox="0 0 677.9 714.2" style="overflow:visible;enable-background:new 0 0 677.9 714.2;"
	 xml:space="preserve">
<style type="text/css">
	.st0{fill:#5B5B5B;}
	.st1{fill:#3A3A3A;}
	.st2{fill:#4986CC;}
	.st3{fill:#3F3D56;}
	.st4{fill:#EF3A50;}
	.st5{opacity:0.2;enable-background:new    ;}
	.st6{fill:#111111;}
	.st7{fill:#FFFFFF;}
	.st8{fill:#FBBEBE;}
</style>
<defs>
</defs>
<path class="st0" d="M484.8,158.1h-3.6V57.9c0-32-25.9-57.9-57.9-57.9l0,0H211.1c-32,0-57.9,26-57.9,57.9l0,0v549.2
	c0,32,25.9,58,57.9,58h212.1c32,0,57.9-25.9,57.9-57.9c0,0,0,0,0-0.1l0,0V229.3h3.6V158.1z"/>
<path class="st1" d="M468.8,58.3v548.4c0,23.9-19.3,43.3-43.2,43.3c0,0,0,0,0,0H212.4c-23.9,0-43.3-19.3-43.3-43.2V58.3
	c0-23.9,19.3-43.3,43.2-43.3c0,0,0,0,0,0h25.9c-4.3,10.5,0.7,22.5,11.3,26.8c2.5,1,5.1,1.5,7.7,1.5h121.5c11.4,0,20.5-9.2,20.5-20.6
	c0-2.6-0.5-5.3-1.5-7.7h27.7C449.4,15.1,468.7,34.4,468.8,58.3L468.8,58.3L468.8,58.3z"/>
<path class="st0" d="M66.8,639.6l-1-0.4c-0.2-0.1-22.1-8.5-32.4-27.5s-5.2-42-5.2-42.2l0.2-1l1,0.4c0.2,0.1,22.1,8.5,32.4,27.5
	s5.2,42,5.2,42.2L66.8,639.6z M35.1,610.8c8.7,16.1,26,24.4,30.4,26.2c0.8-4.7,3.4-23.7-5.2-39.8s-26-24.3-30.4-26.2
	C29.1,575.7,26.4,594.7,35.1,610.8z"/>
<path class="st2" d="M41.3,605c18.4,11.1,25.6,33.2,25.6,33.2s-22.8,4.1-41.3-7S0,598,0,598S22.8,593.9,41.3,605z"/>
<rect x="305.1" y="200.2" class="st3" width="163.7" height="18.7"/>
<path class="st0" d="M468.8,139.5v-18.7h-28.3v-103c-4.8-1.8-9.9-2.7-15-2.7h-3.7v105.7h-98.1V43.4h-18.7v77.4h-82.1V15.1h-10.5
	c-2.7,0-5.5,0.2-8.2,0.8v104.9h-35.1v18.7h35.1v43.2l-35.1,20.3v21.6l35.1-20.3v128.6h-35.1v18.7h35.1v185.9h-35.1v18.7h35.1v93.2
	c2.7,0.5,5.4,0.8,8.2,0.8h10.5v-94h82.1v94h18.7v-94h98.1v94h3.7c5.1,0,10.2-0.9,15-2.7v-91.3h28.3v-18.7h-28.2v-81.3h18.7v-18.7
	h-18.7v-85.9h28.3v-18.7h-28.3V139.5H468.8z M279.1,139.5L279.1,139.5l-56.2,32.4l0,0v-32.4H279.1z M222.9,193.5L222.9,193.5
	l82.1-47.5v186.8h-82.1V193.5z M222.9,537.4V351.5h82.1v185.9H222.9z M421.9,537.4h-98.1v-81.3h98.1V537.4z M421.9,437.4h-98.1
	v-85.9h98.1V437.4z M421.9,332.8h-98.1V139.5h98.1V332.8z"/>
<path class="st4" d="M533.9,201.1c0,59.3-107.4,191.5-107.4,191.5S319.1,260.5,319.1,201.1c-0.6-59.3,47.1-107.9,106.4-108.5
	s107.9,47.1,108.5,106.4C533.9,199.8,533.9,200.4,533.9,201.1z"/>
<circle class="st5" cx="426.5" cy="196.5" r="63.5"/>
<path class="st6" d="M538.5,114.7c0,0-16.9-6-27.7,18.1s-27.7,50.6-27.7,50.6l9.6,2.4c0,0,2.4-16.9,8.4-19.3l-2.4,21.7
	c0,0,72.3,25.3,104.9-2.4l-1.2-8.4c0,0,4.8,1.2,4.8,8.4l3.6-3.6c0,0-3.6-7.2-14.5-16.9c-7.1-6.3-9.6-18.4-10.4-25.9
	c-0.6-6.3-3.1-12.2-7.2-17.1C571.5,114,558.3,105.1,538.5,114.7z"/>
<path class="st7" d="M328.9,107.7l4.2-4.2c6.6-6.6,17.2-6.6,23.8,0l162.6,162.6c6.6,6.6,6.6,17.2,0,23.8l-4.2,4.2
	c-6.6,6.6-17.2,6.6-23.8,0L328.9,131.4C322.3,124.9,322.3,114.2,328.9,107.7z"/>
<path class="st8" d="M640.9,251.1c0,0,31.8,27.1,36.4,43s-17.8,17.7-17.8,17.7l-48.6,4.7c0,0-0.9,22.4-9.3,25.2s-1.7-37.1-1.7-37.1
	l47.5-13.4l-21.5-22.4L640.9,251.1z"/>
<path class="st8" d="M492.4,279.1l-3.7,49.5l-20.6,84.1c0,0-18.7,38.3-2.8,39.2s14.9-36.4,14.9-36.4l29.9-79.4l2.8-54.2L492.4,279.1
	z"/>
<polygon class="st8" points="509.2,637.8 509.2,674.2 531.6,668.6 525.1,635 "/>
<polygon class="st8" points="628.7,637.8 628.7,674.2 651.2,668.6 644.6,635 "/>
<circle class="st8" cx="544.7" cy="161.4" r="30.8"/>
<path class="st8" d="M530.7,176.4c0,0,11.2,40.2-6.5,50.4c-17.8,10.3,44.8,17.8,61.6-13c0,0-29.9-10.3-21.5-37.4L530.7,176.4z"/>
<path class="st2" d="M509.2,231.5l-5.6-1.9c0,0-11.2,4.7-11.2,13.1s-1.9,42-1.9,42l25.2,2.8L509.2,231.5z"/>
<path class="st6" d="M512.9,331.4c0,0-30.9,39.3-30.9,86.9s7.5,220.5,7.5,220.5s28,13.1,44.8-2.8l14.9-196.2l58.8,202.7
	c0,0,28,5.6,41.1-3.7L624.1,508c0,0-0.9-155-29-166.2S512.9,331.4,512.9,331.4z"/>
<path class="st6" d="M533.5,663c0,0-24.3-13.1-26.2,4.7s-2.8,29-2.8,29s-2.8,21.5,23.4,16.8s16.8-17.8,16.8-17.8s-9.3-14.9-9.3-18.7
	S533.5,663,533.5,663z"/>
<path class="st6" d="M626.3,662.6c0,0,22.1-16.5,26.6,0.8s7,28.2,7,28.2s5.9,20.8-20.6,20.1s-19.2-15.1-19.2-15.1s7-16.2,6.5-19.8
	S626.3,662.6,626.3,662.6z"/>
<path class="st2" d="M598.8,218.4c0,0,12.1-6.5,24.3,7.5l24.3,28l-18.7,20.5l-35.5-21.5L598.8,218.4z"/>
<path class="st6" d="M511.4,161.6c10.9-7.9,19.8-17,25.6-27.8c0,0,20,22.2,32.3,23.4s1.1-26.7,1.1-26.7l-22.3-5.6l-21.1,2.2
	l-16.7,11.1L511.4,161.6z"/>
<path class="st2" d="M581.1,211.9c0,0-13,20.7-52.3,10.8l-22.3,6.1l-3,0.8c0,0,2.8,56,10.3,66.3s5.6,15.9,3.8,16.9s-6.5-0.9-3.7,3.7
	s6.5,1.9,2.8,4.7s-5.6,13-5.6,13l87.8,11.2c0,0-2.8-36.4,4.7-55.1s9.3-26.2,9.3-26.2l-5.6-46.7L581.1,211.9z"/>
<circle class="st4" cx="426.5" cy="441.2" r="29"/>
</svg>
