<svg id="aca3dd23-1327-4457-bb54-cb32560b3b43" xmlns="http://www.w3.org/2000/svg" viewBox="0 0 677.95 714.11"><defs><style>.cls-1{fill:#b6c5dd;}.cls-2{fill:#d5dfef;}.cls-3{fill:#3f3d56;}.cls-4{fill:#4986cc;}.cls-5{fill:#ef3a50;}.cls-6{opacity:0.2;isolation:isolate;}.cls-7{fill:#2f2e41;}.cls-8{fill:#fff;}.cls-9{fill:#fbbebe;}.cls-10{fill:#333e4f;}</style></defs><path class="cls-1" d="M508.73,183.28h-3.65V83.16a57.94,57.94,0,0,0-57.94-57.94H235a58,58,0,0,0-57.95,57.94h0V632.4a58,58,0,0,0,57.95,58H447.14a57.94,57.94,0,0,0,57.94-58h0V254.54h3.65Z" transform="translate(-23.94 -25.22)"/><path class="cls-2" d="M492.75,83.57V632a43.24,43.24,0,0,1-43.2,43.28H236.35a43.26,43.26,0,0,1-43.28-43.22V83.57A43.24,43.24,0,0,1,236.29,40.3H262.2a20.55,20.55,0,0,0,19,28.32H402.75a20.56,20.56,0,0,0,19-28.32h27.68a43.24,43.24,0,0,1,43.28,43.19v.08Z" transform="translate(-23.94 -25.22)"/><path class="cls-3" d="M90.78,664.81l-1-.38c-.22-.08-22.14-8.48-32.41-27.53s-5.24-42-5.19-42.21l.23-1,1,.38c.22.08,22.14,8.48,32.41,27.53s5.24,42,5.19,42.2ZM59,636c8.68,16.1,26,24.36,30.4,26.24.83-4.7,3.45-23.73-5.22-39.82s-26-24.35-30.4-26.24C53,600.91,50.34,619.93,59,636Z" transform="translate(-23.94 -25.22)"/><path class="cls-4" d="M65.22,630.22c18.45,11.11,25.56,33.16,25.56,33.16s-22.81,4.06-41.27-7-25.57-33.16-25.57-33.16S46.76,619.12,65.22,630.22Z" transform="translate(-23.94 -25.22)"/><rect class="cls-3" x="305.1" y="200.2" width="163.71" height="18.68"/><path class="cls-1" d="M492.75,164.71V146H464.47V43a43.12,43.12,0,0,0-15-2.67h-3.68V146H347.72V68.62H329V146H246.85V40.3h-10.5a42.29,42.29,0,0,0-8.18.77V146h-35.1v18.68h35.1v43.21l-35.1,20.26v21.57l35.1-20.26V358.05h-35.1v18.68h35.1V562.61h-35.1v18.68h35.1V674.5a43.1,43.1,0,0,0,8.18.78h10.5v-94H329v94h18.68v-94h98.07v94h3.68a43.36,43.36,0,0,0,15-2.67V581.29h28.28V562.61H464.47V481.35h18.68V462.66H464.47V376.73h28.28V358.05H464.47V164.71Zm-189.74,0h0l-56.16,32.43h0V164.71Zm-56.16,54h0L329,171.25v186.8H246.85Zm0,343.9V376.73H329V562.61Zm198.94,0H347.72V481.35h98.07Zm0-99.95H347.72V376.73h98.07Zm0-104.61H347.72V164.71h98.07Z" transform="translate(-23.94 -25.22)"/><path class="cls-5" d="M557.88,226.36c0,59.32-107.42,191.47-107.42,191.47S343.05,285.68,343.05,226.36a107.42,107.42,0,1,1,214.83,0Z" transform="translate(-23.94 -25.22)"/><circle class="cls-6" cx="426.52" cy="196.47" r="63.51"/><path class="cls-7" d="M562.4,139.91s-16.88-6-27.73,18.08S507,208.61,507,208.61l9.64,2.42S519,194.15,525,191.74l-2.41,21.7s72.32,25.31,104.87-2.41l-1.21-8.44s4.83,1.2,4.83,8.44l3.61-3.62s-3.61-7.23-14.46-16.88c-7.12-6.33-9.57-18.37-10.41-25.9a31.34,31.34,0,0,0-7.22-17.06C595.42,139.21,582.29,130.33,562.4,139.91Z" transform="translate(-23.94 -25.22)"/><rect class="cls-8" x="428.34" y="92.2" width="39.54" height="263.62" rx="16.81" transform="translate(-51.09 357.25) rotate(-45)"/><path class="cls-9" d="M664.82,276.33s31.76,27.08,36.43,43S683.5,337,683.5,337l-48.57,4.67s-.93,22.41-9.34,25.22-1.7-37.07-1.7-37.07l47.47-13.37-21.48-22.42Z" transform="translate(-23.94 -25.22)"/><path class="cls-9" d="M516.31,304.35l-3.73,49.5L492,437.91s-18.68,38.3-2.8,39.23,14.94-36.43,14.94-36.43l29.89-79.39,2.8-54.17Z" transform="translate(-23.94 -25.22)"/><polygon class="cls-9" points="509.18 637.79 509.18 674.22 531.6 668.62 525.06 634.99 509.18 637.79"/><polygon class="cls-9" points="628.74 637.79 628.74 674.22 651.15 668.62 644.62 634.99 628.74 637.79"/><circle class="cls-9" cx="544.68" cy="161.44" r="30.82"/><path class="cls-9" d="M554.61,201.6s11.21,40.17-6.54,50.44S592.9,269.79,609.72,239c0,0-29.89-10.28-21.49-37.37Z" transform="translate(-23.94 -25.22)"/><path class="cls-4" d="M533.13,256.71l-5.61-1.87s-11.21,4.67-11.21,13.08-1.87,42-1.87,42l25.22,2.8Z" transform="translate(-23.94 -25.22)"/><path class="cls-10" d="M536.86,356.6S506,395.88,506,443.52,513.51,664,513.51,664s28,13.07,44.83-2.8L573.29,465l58.84,202.68s28,5.61,41.1-3.73L648,533.18s-.93-155-29-166.25S536.86,356.6,536.86,356.6Z" transform="translate(-23.94 -25.22)"/><path class="cls-10" d="M557.41,688.23s-24.28-13.07-26.15,4.67-2.81,29-2.81,29-2.8,21.48,23.36,16.81,16.81-17.75,16.81-17.75-9.34-14.94-9.34-18.68S557.41,688.23,557.41,688.23Z" transform="translate(-23.94 -25.22)"/><path class="cls-10" d="M650.29,687.81s22.1-16.5,26.56.77,7,28.23,7,28.23,5.93,20.84-20.63,20.06S644,721.79,644,721.79s7-16.16,6.5-19.85S650.29,687.81,650.29,687.81Z" transform="translate(-23.94 -25.22)"/><path class="cls-4" d="M622.79,243.64s12.14-6.54,24.29,7.47l24.28,28-18.68,20.55-35.49-21.49Z" transform="translate(-23.94 -25.22)"/><path class="cls-7" d="M535.31,186.86c10.91-7.9,19.75-17,25.59-27.82,0,0,20,22.25,32.26,23.37s1.11-26.7,1.11-26.7L572,150.14l-21.13,2.23L534.2,163.49Z" transform="translate(-23.94 -25.22)"/><path class="cls-4" d="M605.05,237.1S592,257.76,552.74,247.9L530.48,254l-3,.81s2.8,56,10.28,66.32S543.4,337,541.53,338s-6.54-.93-3.73,3.74,6.53,1.87,2.8,4.67S535,359.45,535,359.45l87.8,11.21s-2.8-36.42,4.67-55.1,9.34-26.16,9.34-26.16l-5.6-46.7Z" transform="translate(-23.94 -25.22)"/><circle class="cls-5" cx="426.52" cy="441.18" r="28.95"/></svg>