<?xml version="1.0" encoding="utf-8"?>
<!-- Generator: Adobe Illustrator 24.3.0, SVG Export Plug-In . SVG Version: 6.00 Build 0)  -->
<svg version="1.1" id="Слой_1" xmlns="http://www.w3.org/2000/svg" xmlns:xlink="http://www.w3.org/1999/xlink" x="0px" y="0px"
	 viewBox="0 0 283 282" style="enable-background:new 0 0 283 282;" xml:space="preserve">
<style type="text/css">
	.st0{fill:#FFFFFF;}
</style>
<g>
	<g>
		<path class="st0" d="M241,240.4c26.6-26.6,41.2-61.9,41.2-99.5S267.6,68,241,41.4c-26.6-26.6-61.9-41.2-99.5-41.2
			c-37.6,0-72.9,14.6-99.5,41.2C15.4,68,0.8,103.3,0.8,140.9c0,12.7,1.7,25.4,5.1,37.6c1.6,5.9,7.7,9.3,13.5,7.7
			c5.9-1.6,9.3-7.7,7.7-13.5c-2.8-10.3-4.3-20.9-4.3-31.7C22.8,75.4,76,22.2,141.5,22.2c65.5,0,118.7,53.3,118.7,118.7
			c0,65.5-53.3,118.7-118.7,118.7c-10.9,0-21.8-1.5-32.2-4.4c-5.8-1.6-11.9,1.8-13.6,7.6c-1.6,5.8,1.8,11.9,7.6,13.6
			c12.4,3.5,25.2,5.2,38.2,5.2C179.1,281.6,214.4,267,241,240.4z"/>
	</g>
	<path class="st0" d="M132.4,192.7l-0.4,0.4c-4.2,4.2-11.1,4.2-15.3,0l-40.2-40.2c-4.2-4.2-4.2-11.1,0-15.3l0.4-0.4
		c4.2-4.2,11.1-4.2,15.3,0l40.2,40.2C136.6,181.6,136.6,188.5,132.4,192.7z"/>
	<path class="st0" d="M117.8,193.9L116,192c-3.8-3.8-3.8-10,0-13.9l73.6-73.6c3.8-3.8,10-3.8,13.9,0l1.9,1.9c3.8,3.8,3.8,10,0,13.9
		l-73.6,73.6C127.9,197.7,121.7,197.7,117.8,193.9z"/>
</g>
</svg>
