<!-- Generator: Adobe Illustrator 24.3.0, SVG Export Plug-In  -->
<svg version="1.1" xmlns="http://www.w3.org/2000/svg" xmlns:xlink="http://www.w3.org/1999/xlink" x="0px" y="0px" width="22px"
	 height="22px" viewBox="0 0 22 22" style="overflow:visible;enable-background:new 0 0 22 22;" xml:space="preserve">
<style type="text/css">
	.st0{fill:#FFFFFF;}
</style>
<defs>
</defs>
<path class="st0" d="M11,0C8.1,0,5.3,1.1,3.2,3.2C1.1,5.3,0,8.1,0,11s1.1,5.7,3.2,7.8C5.3,20.9,8.1,22,11,22c1,0,2-0.1,2.9-0.4
	c0.5-0.1,0.7-0.6,0.6-1.1c-0.1-0.5-0.6-0.7-1.1-0.6c-0.8,0.2-1.6,0.3-2.5,0.3c-5.1,0-9.3-4.2-9.3-9.3c0-5.1,4.2-9.3,9.3-9.3
	c5.1,0,9.3,4.2,9.3,9.3c0,0.9-0.1,1.7-0.3,2.5c-0.1,0.5,0.1,0.9,0.6,1.1c0.5,0.1,0.9-0.1,1.1-0.6c0.3-1,0.4-2,0.4-3
	c0-2.9-1.1-5.7-3.2-7.8C16.7,1.1,13.9,0,11,0z M11,4.8c0.5,0,0.9,0.4,0.9,0.9c0,0.5-0.4,0.9-0.9,0.9c0,0,0,0,0,0c0,0,0,0,0,0
	c-0.9,0-1.8,0.3-2.6,0.8c-1,0.7-1.6,1.7-1.8,2.9c-0.2,1.2,0.1,2.4,0.8,3.3c1.4,2,4.2,2.5,6.2,1c0.8-0.5,1.3-1.3,1.6-2.2
	c0.2-0.4,0.6-0.7,1.1-0.5c0.4,0.2,0.7,0.6,0.5,1.1c-0.4,1.2-1.2,2.3-2.3,3c-2.8,2-6.6,1.3-8.6-1.4c-1-1.3-1.3-3-1.1-4.6
	C5.1,8.4,6,7,7.4,6C8.4,5.2,9.7,4.8,11,4.8C11,4.8,11,4.8,11,4.8z M17.7,8c0,1.4-1.2,2.6-2.6,2.6c-1.4,0-2.6-1.2-2.6-2.6
	c0-1.4,1.2-2.6,2.6-2.6C16.6,5.5,17.7,6.6,17.7,8z M16,8c0-0.5-0.4-0.9-0.9-0.9c-0.5,0-0.9,0.4-0.9,0.9c0,0.5,0.4,0.9,0.9,0.9
	C15.6,8.9,16,8.5,16,8z"/>
<path class="st0" d="M18.1,15.6c-1.4,0-2.6,1.2-2.6,2.6c0,1.4,1.2,2.6,2.6,2.6c1.4,0,2.6-1.2,2.6-2.6C20.7,16.8,19.6,15.6,18.1,15.6
	z M18.1,19.1c-0.5,0-0.9-0.4-0.9-0.9c0-0.5,0.4-0.9,0.9-0.9c0.5,0,0.9,0.4,0.9,0.9C19,18.7,18.6,19.1,18.1,19.1z M9.9,11
	c0-0.6,0.5-1.1,1.1-1.1s1.1,0.5,1.1,1.1c0,0.6-0.5,1.1-1.1,1.1S9.9,11.6,9.9,11z"/>
</svg>
