<svg width="22" height="22" viewBox="0 0 22 22" fill="none" xmlns="http://www.w3.org/2000/svg">
<path d="M3.4375 11C3.4375 16.1638 7.29721 20.4261 12.2891 21.0594C11.8669 21.113 11.4367 21.1406 11 21.1406C5.3995 21.1406 0.859375 16.6005 0.859375 11C0.859375 5.3995 5.3995 0.859375 11 0.859375C11.4367 0.859375 11.8669 0.887005 12.2891 0.940586C7.29721 1.57386 3.4375 5.83619 3.4375 11Z" fill="#49B7FC"/>
<path d="M11 0C8.0618 0 5.29942 1.14422 3.2218 3.2218C1.14422 5.29947 0 8.0618 0 11C0 13.9382 1.14422 16.7005 3.2218 18.7782C5.29942 20.8558 8.0618 22 11 22C11.9962 22 12.984 21.8666 13.9359 21.6036C14.3934 21.4772 14.6618 21.0039 14.5353 20.5464C14.409 20.0889 13.9357 19.8206 13.4781 19.947C12.6753 20.1688 11.8415 20.2812 11 20.2812C5.88229 20.2812 1.71875 16.1177 1.71875 11C1.71875 5.88229 5.88229 1.71875 11 1.71875C16.1177 1.71875 20.2812 5.88229 20.2812 11C20.2812 11.8556 20.1651 12.7026 19.936 13.5174C19.8076 13.9743 20.0738 14.4488 20.5307 14.5773C20.9875 14.7057 21.4622 14.4395 21.5906 13.9826C21.8623 13.0163 22 12.0128 22 11C22 8.0618 20.8558 5.29947 18.7782 3.2218C16.7006 1.14422 13.9382 0 11 0ZM11.0053 4.84473C11.4799 4.84765 11.8623 5.23475 11.8594 5.70939C11.8565 6.18221 11.4723 6.56348 11.0001 6.56348C10.9983 6.56348 10.9965 6.56348 10.9947 6.56348C10.9853 6.56339 10.9761 6.56339 10.9667 6.56339C10.0318 6.56339 9.13473 6.85188 8.37091 7.39857C7.40021 8.09321 6.75817 9.12429 6.56296 10.3018C6.3678 11.4794 6.64288 12.6625 7.33756 13.6332C8.77147 15.637 11.5684 16.1006 13.5722 14.6666C14.3342 14.1213 14.8966 13.3664 15.1987 12.4835C15.3523 12.0344 15.841 11.795 16.29 11.9486C16.739 12.1023 16.9785 12.5908 16.8248 13.0399C16.4062 14.2636 15.6273 15.3094 14.5725 16.0643C11.7981 18.0498 7.92541 17.408 5.93983 14.6335C4.97797 13.2895 4.5971 11.6513 4.86737 10.0208C5.1376 8.39029 6.02662 6.96261 7.37064 6.0008C8.42819 5.24391 9.67059 4.8446 10.9665 4.8446C10.9793 4.84464 10.9924 4.84464 11.0053 4.84473ZM17.7461 8.03516C17.7461 9.45673 16.5895 10.6133 15.168 10.6133C13.7464 10.6133 12.5898 9.45673 12.5898 8.03516C12.5898 6.61358 13.7464 5.45703 15.168 5.45703C16.5895 5.45703 17.7461 6.61358 17.7461 8.03516ZM16.0273 8.03516C16.0273 7.5613 15.6418 7.17578 15.168 7.17578C14.6941 7.17578 14.3086 7.5613 14.3086 8.03516C14.3086 8.50902 14.6941 8.89453 15.168 8.89453C15.6418 8.89453 16.0273 8.50902 16.0273 8.03516Z" fill="#4986CC"/>
<path d="M18.1328 15.6406C16.7112 15.6406 15.5547 16.7972 15.5547 18.2188C15.5547 19.6403 16.7112 20.7969 18.1328 20.7969C19.5544 20.7969 20.7109 19.6403 20.7109 18.2188C20.7109 16.7972 19.5544 15.6406 18.1328 15.6406ZM18.1328 19.0781C17.659 19.0781 17.2734 18.6926 17.2734 18.2188C17.2734 17.7449 17.659 17.3594 18.1328 17.3594C18.6067 17.3594 18.9922 17.7449 18.9922 18.2188C18.9922 18.6926 18.6067 19.0781 18.1328 19.0781ZM9.92578 11.043C9.92578 10.4497 10.4067 9.96875 11 9.96875C11.5933 9.96875 12.0742 10.4497 12.0742 11.043C12.0742 11.6362 11.5933 12.1172 11 12.1172C10.4067 12.1172 9.92578 11.6362 9.92578 11.043Z" fill="#F05C44"/>
</svg>