<?xml version="1.0" encoding="UTF-8" standalone="no"?>
<!DOCTYPE svg PUBLIC "-//W3C//DTD SVG 1.1//EN" "http://www.w3.org/Graphics/SVG/1.1/DTD/svg11.dtd">
<svg width="100%" height="100%" viewBox="0 0 46 46" version="1.1" xmlns="http://www.w3.org/2000/svg" xmlns:xlink="http://www.w3.org/1999/xlink" xml:space="preserve" xmlns:serif="http://www.serif.com/" style="fill-rule:evenodd;clip-rule:evenodd;stroke-linejoin:round;stroke-miterlimit:2;">
    <g transform="matrix(0.871704,0,0,0.871704,-0.229023,5.72126)">
        <path d="M0.4,19.3C0.4,20.3 1,21.2 2,21.6L17.7,27.7C18.3,27.9 18.8,28.4 19.1,29L25.9,44.4C26.3,45.3 27.2,45.9 28.2,45.9C29.2,45.9 30.1,45.2 30.4,44.3L45.4,3.3C45.7,2.4 45.5,1.3 44.8,0.7C44.1,0 43,-0.2 42.1,0.2L1.9,17C1,17.4 0.4,18.3 0.4,19.3Z" style="fill:rgb(34,34,34);fill-rule:nonzero;"/>
    </g>
</svg>
