<?xml version="1.0" encoding="utf-8"?>
<!-- Generator: Adobe Illustrator 24.3.0, SVG Export Plug-In . SVG Version: 6.00 Build 0)  -->
<svg version="1.1" id="Слой_1" xmlns="http://www.w3.org/2000/svg" xmlns:xlink="http://www.w3.org/1999/xlink" x="0px" y="0px"
	 viewBox="0 0 178.4 178.4" style="enable-background:new 0 0 178.4 178.4;" xml:space="preserve">
<style type="text/css">
	.st0{fill:#FFFFFF;}
	.st1{fill:#FFFFFF;fill-opacity:0.8;}
	.st2{fill:#FFFFFF;fill-opacity:0.9;}
</style>
<circle class="st0" cx="90.6" cy="87.9" r="22.6"/>
<g>
	<path class="st1" d="M136.1,30.2c-1.9-1.5-4.7-1.2-6.2,0.7c-1.5,1.9-1.2,4.7,0.7,6.2c16,12.7,25.1,31.7,25.1,52.1
		s-9.2,39.4-25.1,52.1c-1.9,1.5-2.2,4.3-0.7,6.2c1.5,1.9,4.3,2.2,6.2,0.7c18.1-14.4,28.5-35.9,28.5-59S154.2,44.6,136.1,30.2z"/>
	<path class="st1" d="M47.8,141.3c-16-12.7-25.1-31.7-25.1-52.1c0-20.4,9.2-39.4,25.1-52.1c1.9-1.5,2.2-4.3,0.7-6.2
		c-1.5-1.9-4.3-2.2-6.2-0.7c-18.1,14.4-28.5,35.9-28.5,59c0,23.1,10.4,44.6,28.5,59c1.9,1.5,4.7,1.2,6.2-0.7
		C50,145.6,49.7,142.9,47.8,141.3z"/>
</g>
<g>
	<path class="st2" d="M121.4,48.6c-1.9-1.5-4.7-1.2-6.2,0.7c-1.5,1.9-1.2,4.7,0.7,6.2c10.4,8.2,16.3,20.5,16.3,33.7
		s-5.9,25.5-16.3,33.7c-1.9,1.5-2.2,4.3-0.7,6.2c1.5,1.9,4.3,2.2,6.2,0.7c12.5-9.9,19.6-24.7,19.6-40.6
		C141,73.3,133.9,58.5,121.4,48.6z"/>
	<path class="st2" d="M62.5,122.9c-10.4-8.2-16.3-20.5-16.3-33.7s5.9-25.5,16.3-33.7c1.9-1.5,2.2-4.3,0.7-6.2
		c-1.5-1.9-4.3-2.2-6.2-0.7c-12.5,9.9-19.6,24.7-19.6,40.6c0,15.9,7.2,30.7,19.6,40.6c1.9,1.5,4.7,1.2,6.2-0.7
		C64.8,127.2,64.4,124.4,62.5,122.9z"/>
</g>
</svg>
