<svg id="Слой_1" data-name="Слой 1" xmlns="http://www.w3.org/2000/svg" viewBox="0 0 300 300"><defs><style>.cls-1{fill:#fff;}</style></defs><path d="M300,85.79C273.22,57.18,246.41,29,227.79,0h-4.65C242.31,32.14,272,63.41,300,95.31Z"/><path d="M198,97.57c-7.68-31.35-24.3-65.7-27.66-97.57h-7.08c1.28,30.78,14.85,64.31,19.95,94.47,7.19,43-13.8,81.52-57.63,108.59C88,226.23,42.18,243.45,0,262.49v23.38C46.88,259,105.71,238.48,150.34,208.25,191.25,180.49,208.53,141,198,97.57Z"/><path d="M300,98.35c-28.31-33-58.92-65.22-78.23-98.35H172.06c3.9,32.14,21.29,66.68,29.62,98.33,11.38,43.49-5,83.26-45.16,111.2C110,241.82,47.23,263.2,0,292.73V300H300Z"/><path class="cls-1" d="M300,98.37C271.68,65.4,241.06,33.14,221.74,0l1.35-.06C242.25,32.11,271.94,63.38,300,95.31Z"/><path class="cls-1" d="M0,292.71c47.23-29.52,110-50.9,156.51-83.19,40.19-27.93,56.54-67.71,45.16-111.19C193.34,66.66,175.9,32.1,172-.06L170.31,0c3.37,31.86,20,66.21,27.68,97.56,10.54,43.38-6.73,82.92-47.65,110.68C105.72,238.47,46.88,259,0,285.86Z"/><path class="cls-1" d="M166.49,300c15.44-11.38,32.37-22.41,48.71-34l-7.1-1.48c-17.45,12.11-35.55,23.59-51.91,35.5Zm110.28-99-5.49-1.15c-4.48,10.56-11.57,20.49-20.36,29.7l6.18,1.29C265.67,221.58,272.54,211.59,276.77,201Zm2.34-48.6-4.48-.94A88.33,88.33,0,0,1,277,174l4.93,1A89.83,89.83,0,0,0,279.11,152.4Zm-14.74-36.87-3.77-.78q4.38,8.63,7.79,17.09l4.09.85C270.11,127,267.39,121.31,264.37,115.53ZM248.12,87.47l-3.27-.69c2.65,4.38,5.23,8.73,7.69,13.06l3.51.73Q252.23,94,248.12,87.47ZM234.4,65.78l-2.87-.6c2.1,3.39,4.21,6.76,6.29,10.13l3.06.64Zm-10.71-17-2.57-.54c1.6,2.66,3.22,5.34,4.86,8l2.71.56Q226.17,52.77,223.69,48.75Zm-8.13-13.68-2.33-.49Q215,37.8,216.89,41l2.45.51C218.05,39.39,216.79,37.23,215.56,35.07Zm-6.14-11.15-2.12-.45q1.33,2.66,2.75,5.29l2.21.46C211.31,27.46,210.35,25.69,209.42,23.92Zm-4.61-9.25-1.94-.41c.66,1.47,1.35,2.93,2,4.4l2,.42C206.22,17.62,205.52,16.15,204.81,14.67Zm-3.46-7.76-1.8-.37c.5,1.23,1,2.47,1.54,3.71l1.88.39C202.42,9.38,201.87,8.15,201.35,6.91ZM198.74.29l-1.69-.35c.37,1.05.76,2.11,1.16,3.17l1.74.36C199.54,2.41,199.13,1.35,198.74.29Z"/></svg>