<svg xmlns="http://www.w3.org/2000/svg" viewBox="0 0 204.57 150.34"><defs><style>.a{fill:#f6cd47;}.b{fill:#f3f3f3;}</style></defs><path class="a" d="M148.85,238a27.79,27.79,0,1,0-27.78-27.78A27.79,27.79,0,0,0,148.85,238Z" transform="translate(-95.43 -149.66)"/><path class="a" d="M148.94,149.66h0a6.81,6.81,0,0,0-6.81,6.81v13.84a6.81,6.81,0,0,0,6.81,6.81h0a6.8,6.8,0,0,0,6.81-6.81V156.47A6.8,6.8,0,0,0,148.94,149.66Z" transform="translate(-95.43 -149.66)"/><path class="a" d="M201.37,180h0a6.82,6.82,0,0,0-9.31-2.49l-12,6.92a6.81,6.81,0,0,0-2.49,9.3h0a6.81,6.81,0,0,0,9.3,2.5l12-6.92A6.82,6.82,0,0,0,201.37,180Z" transform="translate(-95.43 -149.66)"/><path class="a" d="M96.34,240.46h0a6.8,6.8,0,0,0,9.3,2.49l12-6.91a6.81,6.81,0,0,0-6.81-11.8l-12,6.92A6.81,6.81,0,0,0,96.34,240.46Z" transform="translate(-95.43 -149.66)"/><path class="a" d="M96.43,179.88h0a6.81,6.81,0,0,0,2.49,9.3l12,6.92a6.81,6.81,0,0,0,9.3-2.49h0a6.81,6.81,0,0,0-2.49-9.31l-12-6.92A6.81,6.81,0,0,0,96.43,179.88Z" transform="translate(-95.43 -149.66)"/><path class="b" d="M116.42,300H300V234.7a44.13,44.13,0,0,0-4.13-2.33,43.72,43.72,0,0,0-46.05,4.77A47.3,47.3,0,0,0,169,253.71,35.27,35.27,0,0,0,116.42,300Z" transform="translate(-95.43 -149.66)"/></svg>