<svg xmlns="http://www.w3.org/2000/svg" viewBox="0 0 145.52 176.34"><defs><style>.a{fill:#c9c9c9;}.b{fill:#dbdbdb;}.c{fill:#ededed;}.d{fill:#656d78;}.e{fill:#ccd1d9;}.f{fill:#2d7dff;}.g{fill:#0050ff;}</style></defs><path class="a" d="M144.84,300H269.93a8.64,8.64,0,0,0,4.29-8.31L258.94,131.42a8.5,8.5,0,0,0-9.25-7.72L137.61,134.76a8.57,8.57,0,0,0-7.62,9.38Z" transform="translate(-128.74 -123.66)"/><path class="b" d="M258.9,300l15-147.86a8.56,8.56,0,0,0-7.57-9.41l-112-11.65a8.51,8.51,0,0,0-9.3,7.67L128.78,298.94a7.57,7.57,0,0,0,0,1.06Z" transform="translate(-128.74 -123.66)"/><path class="c" d="M267.15,300a8.53,8.53,0,0,0,.72-3.43V135.42a8.52,8.52,0,0,0-8.53-8.52H146.85a8.52,8.52,0,0,0-8.53,8.52V296.57A8.53,8.53,0,0,0,139,300Z" transform="translate(-128.74 -123.66)"/><path class="d" d="M245.37,146.07H160.82a3.24,3.24,0,0,0-3.25,3.25v6.51a3.25,3.25,0,0,0,3.25,3.25h84.55a3.25,3.25,0,0,0,3.25-3.25v-6.51A3.24,3.24,0,0,0,245.37,146.07Z" transform="translate(-128.74 -123.66)"/><path class="e" d="M190.08,185.1H160.8a3.25,3.25,0,0,1,0-6.5h29.28a3.25,3.25,0,0,1,0,6.5Z" transform="translate(-128.74 -123.66)"/><path class="e" d="M245.39,185.1H216.11a3.25,3.25,0,0,1,0-6.5h29.28a3.25,3.25,0,0,1,0,6.5Z" transform="translate(-128.74 -123.66)"/><path class="e" d="M203.15,185.1a3.26,3.26,0,0,1-3.27-3.25,3.23,3.23,0,0,1,3.23-3.25h0a3.25,3.25,0,0,1,0,6.5Z" transform="translate(-128.74 -123.66)"/><path class="e" d="M245.38,204.61H160.82a3.26,3.26,0,0,1,0-6.51h84.56a3.26,3.26,0,0,1,0,6.51Z" transform="translate(-128.74 -123.66)"/><path class="e" d="M245.38,217.61H160.82a3.25,3.25,0,0,1,0-6.5h84.56a3.25,3.25,0,0,1,0,6.5Z" transform="translate(-128.74 -123.66)"/><path class="e" d="M222.6,230.62h-39a3.25,3.25,0,0,1,0-6.5h39a3.25,3.25,0,1,1,0,6.5Z" transform="translate(-128.74 -123.66)"/><path class="f" d="M233,272.13c10.05,0,18.17-7.52,18.17-16.79S243,238.54,233,238.54h-18.3a1.65,1.65,0,0,0-1.71,1.58v22.09h-3.78a1.65,1.65,0,0,0-1.71,1.58v6.76a1.65,1.65,0,0,0,1.71,1.58H213v3.61h-3.78a1.65,1.65,0,0,0-1.71,1.58v6.76a1.65,1.65,0,0,0,1.71,1.58H213v5.18a1.65,1.65,0,0,0,1.71,1.58H222a1.65,1.65,0,0,0,1.71-1.58v-5.18h11.1a1.65,1.65,0,0,0,1.71-1.58v-6.76a1.65,1.65,0,0,0-1.71-1.58h-11.1v-3.61Zm-9.27-23.67H233a7.18,7.18,0,0,1,7.44,6.88c0,3.79-3.34,6.87-7.44,6.87h-9.27Z" transform="translate(-128.74 -123.66)"/><path class="g" d="M236.55,284.08v-6.76a1.65,1.65,0,0,0-1.71-1.58h-11.1v9.92h11.1A1.65,1.65,0,0,0,236.55,284.08Z" transform="translate(-128.74 -123.66)"/><path class="g" d="M233,238.54h-9.27v9.92H233a7.18,7.18,0,0,1,7.44,6.88c0,3.79-3.34,6.87-7.44,6.87h-9.27v9.92H233c10.05,0,18.17-7.52,18.17-16.79S243,238.54,233,238.54Z" transform="translate(-128.74 -123.66)"/></svg>