<svg xmlns="http://www.w3.org/2000/svg" xmlns:xlink="http://www.w3.org/1999/xlink" viewBox="0 0 150 141.87"><defs><style>.a{fill:url(#a);}.b{fill:url(#b);}.c{fill:url(#c);}.d{fill:url(#d);}.e{fill:url(#e);}.f{fill:url(#f);}.g{fill:url(#g);}.h{fill:#f3f3f3;}</style><linearGradient id="a" x1="183.12" y1="235.84" x2="158.4" y2="282.27" gradientUnits="userSpaceOnUse"><stop offset="0" stop-color="#3fbeea"/><stop offset="1" stop-color="#0071bc"/></linearGradient><linearGradient id="b" x1="196.91" y1="270.71" x2="180.66" y2="297.9" xlink:href="#a"/><linearGradient id="c" x1="203.58" y1="283.9" x2="254.75" y2="219.53" xlink:href="#a"/><linearGradient id="d" x1="236.92" y1="286.7" x2="288.09" y2="222.33" gradientUnits="userSpaceOnUse"><stop offset="0" stop-color="#3fbeea"/><stop offset="1" stop-color="#0c80c5"/><stop offset="1" stop-color="#0071bc"/></linearGradient><linearGradient id="e" x1="227.05" y1="302.56" x2="278.22" y2="238.18" xlink:href="#a"/><linearGradient id="f" x1="249.12" y1="235.06" x2="229.37" y2="265.61" xlink:href="#a"/><linearGradient id="g" x1="210.45" y1="227.25" x2="180.81" y2="275.9" xlink:href="#a"/></defs><path class="a" d="M179.1,236.29s-17.49,9.65-21.45,21.29,11.09,19,19.65,13.61,4.83-29.88,1.8-34.9" transform="translate(-150 -150)"/><path class="b" d="M193.65,272.23s-7.61,4.2-9.34,9.27,4.83,8.26,8.56,5.93,2.1-13,.78-15.2" transform="translate(-150 -150)"/><path class="c" d="M220.89,256.55s-7.62,4.2-9.35,9.27,4.84,8.26,8.56,5.92,2.11-13,.79-15.19" transform="translate(-150 -150)"/><path class="d" d="M270.58,239.68s-6.39,3.52-7.84,7.78,4.05,6.92,7.18,5,1.77-10.91.66-12.74" transform="translate(-150 -150)"/><path class="e" d="M247.23,269.28s-10.77,5.94-13.21,13.11,6.83,11.68,12.1,8.38,3-18.4,1.11-21.49" transform="translate(-150 -150)"/><path class="f" d="M246.4,233s-10.77,5.95-13.21,13.12,6.83,11.68,12.11,8.37,3-18.39,1.1-21.49" transform="translate(-150 -150)"/><path class="g" d="M206,229.48s-9.36,5.17-11.49,11.41,5.94,10.15,10.53,7.28,2.59-16,1-18.69" transform="translate(-150 -150)"/><path class="h" d="M300,170a32.28,32.28,0,0,0-46.91-7.93,34.94,34.94,0,0,0-59.72,12.24,26.06,26.06,0,1,0-17.31,45.53l1.2,0c.42,0,.83,0,1.25,0h97.81A28.25,28.25,0,0,0,300,207.05Z" transform="translate(-150 -150)"/></svg>