<svg xmlns="http://www.w3.org/2000/svg" viewBox="0 0 176.36 176.92"><defs><style>.a{fill:#f6cd47;}</style></defs><path class="a" d="M214.91,274.06a47.47,47.47,0,1,0-47.47-47.47A47.47,47.47,0,0,0,214.91,274.06Z" transform="translate(-123.64 -123.08)"/><path class="a" d="M215.07,123.08h0a11.64,11.64,0,0,0-11.64,11.64v23.64A11.64,11.64,0,0,0,215.07,170h0a11.64,11.64,0,0,0,11.63-11.64V134.72A11.64,11.64,0,0,0,215.07,123.08Z" transform="translate(-123.64 -123.08)"/><path class="a" d="M125.2,278.21h0a11.63,11.63,0,0,0,15.89,4.25l20.48-11.82a11.64,11.64,0,0,0-11.64-20.15l-20.47,11.82A11.63,11.63,0,0,0,125.2,278.21Z" transform="translate(-123.64 -123.08)"/><path class="a" d="M125.35,174.7h0a11.65,11.65,0,0,0,4.26,15.9l20.48,11.82A11.64,11.64,0,0,0,166,198.16h0a11.64,11.64,0,0,0-4.26-15.9l-20.47-11.82A11.65,11.65,0,0,0,125.35,174.7Z" transform="translate(-123.64 -123.08)"/><path class="a" d="M300,170.52a11.62,11.62,0,0,0-11.27.19l-20.47,11.82a11.64,11.64,0,0,0-4.26,15.9h0a11.64,11.64,0,0,0,15.89,4.26L300,191.08Z" transform="translate(-123.64 -123.08)"/><path class="a" d="M300,263.18l-20.09-11.6A11.64,11.64,0,0,0,264,255.84h0a11.64,11.64,0,0,0,4.26,15.9l20.47,11.82a11.64,11.64,0,0,0,11.25.2Z" transform="translate(-123.64 -123.08)"/><path class="a" d="M226.57,300v-6.36a11.64,11.64,0,1,0-23.27,0V300Z" transform="translate(-123.64 -123.08)"/></svg>