<svg id="Слой_1" data-name="Слой 1" xmlns="http://www.w3.org/2000/svg" xmlns:xlink="http://www.w3.org/1999/xlink" viewBox="0 0 300 300"><defs><style>.cls-1{fill:url(#Heatherstone);}.cls-2{fill:url(#Bluestone);}.cls-3{fill:url(#Bluestone-2);}.cls-4{fill:url(#Bluestone-3);}.cls-5{fill:url(#Bluestone-4);}.cls-6{fill:url(#Bluestone-5);}.cls-7{fill:url(#Bluestone-6);}.cls-8{fill:url(#Bluestone-7);}</style><linearGradient id="Heatherstone" x1="133.48" y1="-11.42" x2="161.81" y2="338.9" gradientUnits="userSpaceOnUse"><stop offset="0.01" stop-color="#989aa2"/><stop offset="0.03" stop-color="#9b9da5"/><stop offset="0.19" stop-color="#acafb8"/><stop offset="0.36" stop-color="#b7b9c4"/><stop offset="0.53" stop-color="#babdc8"/><stop offset="0.69" stop-color="#bec1cb"/><stop offset="0.84" stop-color="#c9ccd5"/><stop offset="0.99" stop-color="#dddee6"/><stop offset="1" stop-color="#dedfe7"/></linearGradient><linearGradient id="Bluestone" x1="134.56" y1="269.62" x2="188.15" y2="269.62" gradientTransform="translate(-29.22 22.29) rotate(-6.28)" gradientUnits="userSpaceOnUse"><stop offset="0.01" stop-color="#435972"/><stop offset="0.11" stop-color="#536880"/><stop offset="0.25" stop-color="#64768f"/><stop offset="0.42" stop-color="#6e7f97"/><stop offset="0.62" stop-color="#71829a"/><stop offset="0.73" stop-color="#72849d"/><stop offset="0.82" stop-color="#768ba7"/><stop offset="0.9" stop-color="#7d96b8"/><stop offset="0.97" stop-color="#86a5d0"/><stop offset="1" stop-color="#8baddc"/></linearGradient><linearGradient id="Bluestone-2" x1="194.47" y1="257.81" x2="245.35" y2="257.81" gradientTransform="translate(-16.74 17.68) rotate(-3.75)" xlink:href="#Bluestone"/><linearGradient id="Bluestone-3" x1="156.34" y1="221.39" x2="207.22" y2="221.39" gradientTransform="translate(-10.69 10.18) rotate(-2.76)" xlink:href="#Bluestone"/><linearGradient id="Bluestone-4" x1="193.95" y1="174.65" x2="230" y2="174.65" gradientTransform="matrix(1, 0, 0, 1, 0, 0)" xlink:href="#Bluestone"/><linearGradient id="Bluestone-5" x1="162.06" y1="248.88" x2="206.77" y2="248.88" gradientTransform="matrix(1, 0, 0, 1, 0, 0)" xlink:href="#Bluestone"/><linearGradient id="Bluestone-6" x1="124.1" y1="242.71" x2="169.68" y2="242.71" gradientTransform="matrix(1, 0, 0, 1, 0, 0)" xlink:href="#Bluestone"/><linearGradient id="Bluestone-7" x1="194.94" y1="230.79" x2="243.47" y2="230.79" gradientTransform="matrix(1, 0, 0, 1, 0, 0)" xlink:href="#Bluestone"/></defs><path class="cls-1" d="M227.79,0H163.25c1.28,30.78,14.85,64.31,19.95,94.47,7.19,43-13.8,81.52-57.63,108.59C88,226.23,42.18,243.45,0,262.49V300H300V85.79C273.22,57.18,246.41,29,227.79,0Zm30.38,47.66h0Z"/><path class="cls-2" d="M161.3,284.66a32.85,32.85,0,0,1-10.66-.7c-3.39-.66-7-1.51-10.41-2.17-4.46-1-6.76-3-5.73-5a8.22,8.22,0,0,1,2.37-2.95c3-2.62,6.29-5.06,9.76-7.51a30.17,30.17,0,0,1,11.26-5.18,20,20,0,0,1,9.93-.27c5.11,1.1,10.19,2,15.08,3.12,2.76.53,4.6,2.19,4,3.92-.77,2.37-3.44,4.53-6.32,6.72-3.46,2.45-6.95,4.7-10.42,7.16A19.75,19.75,0,0,1,161.3,284.66Z"/><path class="cls-3" d="M240.52,260.63a.75.75,0,0,0-.6.24,39.82,39.82,0,0,0-3.9,2.49,6.86,6.86,0,0,1-1.77.93c-2.73,1.81-5.45,3.61-8.19,5.21a25.5,25.5,0,0,1-5.52,2.6,14,14,0,0,1-9.15,0c-3.94-1.16-7.67-2.34-11.41-3.52-6.43-2-7.47-5.4-2.82-9,3.5-2.46,6.78-5.12,10.69-7.41,4.89-3,12.69-4.89,21.52-3.44,1.85.28,3.9.56,5.76,1a31.4,31.4,0,0,1,6.64,2c2.92,1.23,3.64,2.81,2.14,4.74l-2.46,2.8c-.19.21-.6.24-.79.46a3,3,0,0,0-.55.85Z"/><path class="cls-4" d="M202.51,223a.77.77,0,0,0-.6.23,40.73,40.73,0,0,0-3.94,2.43,7.29,7.29,0,0,1-1.79.89c-2.75,1.76-5.51,3.52-8.28,5.07a25.58,25.58,0,0,1-5.56,2.51,14,14,0,0,1-9.15-.17c-3.91-1.23-7.63-2.48-11.34-3.72-6.4-2.13-7.38-5.53-2.67-9,3.54-2.4,6.86-5,10.82-7.22,4.93-2.88,12.77-4.68,21.57-3.07a58.23,58.23,0,0,1,5.74,1.14,30.93,30.93,0,0,1,6.6,2.12c2.91,1.28,3.59,2.87,2.06,4.78l-2.51,2.76c-.19.21-.59.23-.79.44a2.83,2.83,0,0,0-.56.84Z"/><path class="cls-5" d="M210.09,182.61a21.2,21.2,0,0,1-5.68-.77c-2.16-.61-4.31-1.23-6.46-1.69-3.23-.77-4.46-2.15-3.84-3.84a8.34,8.34,0,0,1,3.23-3.39c2.3-1.69,4.76-3.22,7.07-4.91,1.53-1.08,4.76-1.54,7.84-1.23a31.29,31.29,0,0,1,7.07,1.69c1.23.3,2.46.77,3.69,1.07a2.06,2.06,0,0,0,.92.31c1.08.31,2.15.62,3.07.92,2.31.77,3.54,1.69,2.77,3.08-.15.3-.15.46-.31.77,0,.3-.61.61-1.07.76a12.71,12.71,0,0,1-2,1.23c-1.69.93-3.54,1.85-5.23,2.62a29.75,29.75,0,0,1-4.46,2A14.48,14.48,0,0,1,210.09,182.61Z"/><path class="cls-6" d="M206.77,246.2c0,.81-1,2-2.23,3-3.65,3-7.5,5.88-11.36,8.92-2.63,2-7.7,2.84-12.16,1.83-4.87-1-9.54-2-14.2-3.25-4.06-1-5.68-3.24-4.26-5.47,1-1.83,3.25-3.25,5.27-4.67,2.24-1.62,4.26-3.45,6.49-5.27a14.38,14.38,0,0,1,5.28-3c4.46-1.42,8.31-1.22,13.18.4,3.24,1,6.29,2,9.73,3C205.35,243,206.77,244.17,206.77,246.2Z"/><path class="cls-7" d="M147.74,231.15a25.47,25.47,0,0,1,8.25,1.44c2.89,1,5.78,1.86,8.87,2.68,4.54,1.24,5.37,3.51,4.54,5.37-.83,1.65-2.89,3.09-4.75,4.53-2.68,2.27-5.57,4.34-8.45,6.61-2.07,1.65-5.16,2.68-9.49,2.47a43.22,43.22,0,0,1-5.16-.62c-3.92-.82-7.84-1.85-12-2.68-4.12-1-6-2.68-5.36-4.74.62-1.65,2.27-3.1,4.12-4.54,2.89-2.07,5.57-4.34,8.26-6.6a16.88,16.88,0,0,1,9.07-3.72A8,8,0,0,1,147.74,231.15Z"/><path class="cls-8" d="M215.65,241.64a23.07,23.07,0,0,1-7-1.24c-2.47-.62-5.16-1.45-7.84-2.07-4.74-1.23-6.6-2.88-5.57-5.36.83-1.86,2.89-3.51,5.16-5.16,2.89-1.85,5.57-3.92,8.46-5.77,2.68-1.86,7.63-2.69,12.58-1.65a83.46,83.46,0,0,1,9.7,2.68c2.89.82,5.57,1.85,8.46,2.68,3.51,1,4.74,2.68,3.3,4.54a13.18,13.18,0,0,1-3.1,2.68c-4.12,2.27-8.45,4.33-12.79,6.6C223.9,241,220.6,241.64,215.65,241.64Z"/></svg>